<svg width="386" height="720" viewBox="0 0 386 720" fill="none" xmlns="http://www.w3.org/2000/svg">
<path d="M68.527 339.777C63.3037 315.961 87.0593 305.652 112.042 319.448C118.628 323.074 124.486 327.656 130.25 332.404C102.79 364.819 73.4422 362.189 68.527 339.777ZM342.347 267.335C324.721 251.476 303.665 241.95 281.81 238.629C272.596 220.044 259.097 203.66 244.53 189.066C225.04 169.526 203.98 153.693 203.96 120.178C204.089 120.035 220.932 110.063 227.333 94.8643C232.017 83.7639 227.718 72.1207 222.652 61.8712C219.675 55.8364 216.264 49.9594 213.886 43.629C211.12 36.2133 211.423 29.0106 210.068 21.4031C208.318 11.6157 200.877 1.00073 190.544 0.0585327C181.256 -0.778015 173.283 7.50299 169.169 15.6227C166.951 19.9844 166.238 24.9498 165.369 29.7109C163.723 38.8159 161.882 45.6245 156.347 53.051C149.952 61.6151 142.929 69.6685 142.925 80.9606C142.939 94.1335 149.812 107.14 159.858 115.342L160.245 115.546C152.388 144.774 159.766 177.644 180.595 199.574C191.91 211.468 205.397 221.678 214.237 235.727C216.103 238.697 217.948 242.145 219.639 245.851C210.64 249.446 201.956 254.123 193.791 259.955C184.47 266.574 175.526 274.411 167.175 282.989C156.119 273.053 146.319 261.842 133.012 254.598C106.324 240.087 71.5005 239.213 45.2855 254.994C0.563208 281.877 -4.28392 323.774 2.48165 355.195C4.86939 366.318 8.72597 376.124 12.7635 383.489C14.7518 387.084 16.7669 390.088 18.6871 392.392C35.3351 412.235 60.0723 424.364 85.8252 424.303C112.959 424.242 136 411.633 154.201 392.111C163.385 382.278 171.254 371.382 179.141 360.504C252.897 378.789 286.258 332.379 291.354 309.464C302.218 315.626 310.758 324.664 316.111 335.398C321.069 345.332 323.263 356.708 322.004 368.588C321.357 374.612 319.951 380.306 317.87 385.599C309.891 406.018 291.458 426.289 268.936 431.138C238.728 437.619 208.13 429.883 177.917 427.717C146.413 425.446 116.631 428.109 92.1984 449.271C91.1882 450.145 90.1761 451.041 89.1999 451.958C85.4418 455.465 81.999 459.134 78.8841 462.982L78.8428 463.017C65.8921 479.06 58.822 497.997 58.3778 519.358C54.2847 565.4 81.9327 608.729 126.102 625.649C137.721 630.088 149.941 632.354 162.349 632.775C165.857 632.901 169.437 632.878 173.045 632.857C184.513 632.785 196.245 632.714 206.755 637.424C220.773 643.71 228.02 658.701 227.856 673.603C227.653 689.441 219.868 701.632 212.841 715.129C211.476 717.739 214.957 723.009 222.011 716.223C238.057 700.78 252.541 678.884 253.723 655.991C254.191 646.981 252.406 638.782 248.718 631.637C243.81 622.013 235.529 614.278 224.836 609.051C208.465 601.043 190.544 598.194 173.663 592.192C165.857 589.426 158.278 585.987 151.168 581.036C129.944 566.28 116.934 540.618 125.881 515.87C126.848 513.898 127.938 512.069 129.091 510.38C130.657 508.112 132.392 506.106 134.266 504.306C135.181 503.421 136.111 502.615 137.093 501.854C137.626 501.434 138.155 501.056 138.687 500.659C153.361 490.261 174.256 490.513 193.127 493.974C194.621 494.232 196.093 494.504 197.567 494.758C231.925 500.619 259.835 499.969 282.6 494.968C334.471 483.586 359.721 449.59 374.052 418.304C397.118 367.907 383.546 304.391 342.347 267.335Z" fill="#FDE8E3"/>
<path d="M291.354 309.464C286.097 307.404 280.814 305.419 275.267 304.563C272.542 303.898 269.716 303.764 266.962 303.404C264.152 303.327 261.368 303.119 258.574 303.312C252.994 303.545 247.44 304.183 242.007 305.466C236.59 306.748 231.209 308.53 226.245 310.866L225.966 310.997L225.74 310.959C222.991 310.562 220.211 310.334 217.493 309.806C214.78 309.238 212.055 308.785 209.4 307.973C204.722 306.786 200.141 305.145 195.737 303.194C195.088 302.909 194.443 302.608 193.797 302.308C193.426 302.143 193.057 301.958 192.69 301.776C188.059 299.554 183.696 296.878 179.506 293.948C175.055 290.707 170.783 287.157 167.175 282.989C171.077 286.854 175.42 290.22 180.029 293.185C184.215 295.906 188.557 298.388 193.127 300.411C193.551 300.618 193.978 300.787 194.404 300.975C195.368 301.381 196.331 301.785 197.315 302.173C201.401 303.81 205.555 305.281 209.823 306.302C212.446 307.072 215.134 307.484 217.812 308.011C220.418 308.511 223.048 308.706 225.665 309.055C230.826 306.659 236.156 305.005 241.607 303.764C247.171 302.551 252.847 301.828 258.542 301.833C261.388 301.72 264.24 302.03 267.063 302.204C269.862 302.644 272.72 302.877 275.457 303.639C281.017 304.823 286.281 307.017 291.354 309.464Z" fill="#F8A597"/>
<path d="M179.141 360.504C174.485 359.528 170 357.878 165.628 356.024C161.773 354.405 158.034 352.526 154.387 350.464C153.873 350.192 153.377 349.921 152.883 349.631C151.933 349.056 151.002 348.481 150.053 347.904C146.952 345.964 143.916 343.951 141.032 341.703C139.117 340.281 137.306 338.733 135.474 337.241C133.704 335.657 131.957 334.058 130.25 332.404C134.152 335.118 137.929 337.92 141.879 340.488C145.476 342.928 149.18 345.207 152.893 347.408L153.019 347.496C153.295 347.652 153.569 347.827 153.843 347.985C157.886 350.367 162.038 352.567 166.235 354.693C168.331 355.784 170.476 356.766 172.621 357.727C174.763 358.727 176.932 359.632 179.141 360.504Z" fill="#F8A597"/>
<path d="M317.87 385.599C319.951 380.306 321.357 374.612 322.004 368.588C322.346 365.355 322.434 362.159 322.278 359.021C323.545 358.741 324.784 358.539 326.056 358.431C325.207 367.873 322.531 377.143 317.87 385.599Z" fill="#FBC6BC"/>
<path d="M322.178 357.403C321.863 353.267 321.126 349.237 320.002 345.355C321.893 344.458 323.863 343.777 325.895 343.292C325.841 342.769 325.769 342.245 325.716 341.744C323.616 342.319 321.576 343.13 319.649 344.18C319.208 342.756 318.708 341.353 318.158 339.974C317.54 338.418 316.856 336.891 316.111 335.398C315.703 334.557 315.265 333.73 314.8 332.915C314.723 332.779 314.646 332.643 314.569 332.506C316.994 330.502 319.656 328.881 322.538 327.622C322.387 327.111 322.219 326.599 322.047 326.104C319.118 327.477 316.399 329.305 313.995 331.485C312.634 329.212 311.115 327.02 309.464 324.935C308.846 324.154 308.208 323.387 307.551 322.637C310.298 319.507 313.575 316.957 317.225 314.993C316.98 314.474 316.697 313.953 316.392 313.449C312.747 315.604 309.485 318.443 306.779 321.77C306.558 321.526 306.336 321.286 306.112 321.046C306.11 321.044 306.109 321.042 306.107 321.041C306.084 321.017 306.062 320.994 306.04 320.971C304.785 319.636 303.468 318.355 302.089 317.134C299.78 315.085 297.303 313.193 294.668 311.479C297.43 306.517 301.041 302.198 305.388 298.437C305.018 298.043 304.629 297.647 304.24 297.251C299.8 300.948 296.164 305.593 293.498 310.736C293.108 310.494 292.715 310.257 292.318 310.023C291.997 309.831 291.675 309.646 291.354 309.464C287.592 307.642 283.704 305.962 279.682 304.733C281.07 297.598 283.646 291.195 287.576 285.094C287.023 284.818 286.471 284.544 285.916 284.286C281.889 290.202 279.148 297.22 278.108 304.283C277.327 304.07 276.542 303.877 275.749 303.701C275.652 303.68 275.555 303.66 275.457 303.639C272.72 302.877 269.863 302.644 267.063 302.204C267.043 302.202 267.023 302.202 267.004 302.2C265.148 302.086 263.281 301.914 261.413 301.842C260.616 297.774 260.188 293.661 260.245 289.434C260.29 285.162 260.926 281.112 261.85 277.103C261.264 276.997 260.675 276.931 260.086 276.863C259.171 281.255 258.816 285.808 258.848 290.125C258.861 293.96 259.217 297.785 259.944 301.545L259.998 301.81C259.932 301.81 259.864 301.81 259.797 301.81C259.38 301.81 258.961 301.817 258.542 301.833C258.522 301.833 258.502 301.833 258.481 301.833C254.056 301.833 249.641 302.274 245.283 303.04C243.026 299.963 240.991 296.731 239.314 293.127C236.968 288.065 235.487 282.98 234.405 277.694C233.994 277.776 233.568 277.837 233.156 277.938C234.505 286.77 238.071 295.9 243.264 303.418C243.083 303.454 242.902 303.492 242.72 303.529C242.349 303.603 241.974 303.678 241.607 303.764C237.418 304.719 233.299 305.915 229.274 307.508C220.349 302.981 212.548 296.898 206.348 288.802C206.06 289.025 205.757 289.212 205.451 289.437C211.07 297.14 218.412 303.873 226.786 308.547C226.516 308.667 226.245 308.787 225.977 308.91C225.873 308.957 225.769 309.005 225.665 309.055C223.335 308.745 220.995 308.556 218.67 308.165C219.046 307.936 219.371 307.628 219.641 307.23C219.559 307.599 219.849 308.391 220.259 308.391C220.331 308.391 220.408 308.367 220.485 308.312C220.761 308.104 220.449 306.992 219.96 306.992C219.894 306.992 219.824 307.011 219.752 307.058C219.921 306.779 220.066 306.46 220.186 306.098C218.364 305.226 217.875 303.357 214.846 303.357C214.794 303.357 214.74 303.357 214.686 303.359C214.423 304.649 214.16 305.955 213.893 307.266C212.524 306.997 211.165 306.696 209.823 306.302C205.555 305.281 201.401 303.81 197.315 302.173C196.331 301.785 195.368 301.382 194.404 300.975C193.978 300.787 193.551 300.619 193.127 300.411C196.788 296.187 200.942 292.538 205.451 289.437C205.757 289.212 206.06 289.025 206.348 288.802C214.412 283.48 223.585 279.858 233.156 277.938C233.568 277.837 233.994 277.776 234.405 277.694C239.515 276.741 244.737 276.268 249.956 276.268C253.344 276.268 256.729 276.467 260.086 276.863C260.675 276.931 261.264 276.997 261.85 277.103C270.248 278.249 278.43 280.664 285.916 284.286C286.471 284.544 287.023 284.818 287.576 285.094C288.146 285.389 288.698 285.683 289.265 286C294.827 289.042 299.827 292.844 304.24 297.251C304.629 297.647 305.018 298.043 305.388 298.437C309.68 302.931 313.37 307.986 316.392 313.449C316.697 313.953 316.98 314.474 317.225 314.993C319.136 318.563 320.732 322.278 322.047 326.104C322.219 326.599 322.387 327.111 322.538 327.622C324.023 332.209 325.09 336.956 325.716 341.744C325.769 342.245 325.841 342.769 325.895 343.292C326.375 347.741 326.486 352.235 326.178 356.717C324.825 356.855 323.486 357.09 322.178 357.403ZM248.169 289.362C248.049 289.362 247.941 289.418 247.861 289.554C247.699 289.828 248.296 290.586 248.735 290.586C248.855 290.586 248.962 290.53 249.039 290.396C249.193 290.12 248.608 289.362 248.169 289.362ZM239.031 279.046C239.01 279.046 238.987 279.046 238.963 279.048C238.451 279.159 238.08 280.082 239.119 280.082C239.141 280.082 239.164 280.08 239.187 280.08C239.707 279.965 240.078 279.046 239.031 279.046Z" fill="#FBC6BC"/>
<path d="M226.786 308.547C218.412 303.873 211.07 297.14 205.45 289.437C205.757 289.212 206.059 289.025 206.348 288.802C212.547 296.898 220.348 302.981 229.274 307.508C229.097 307.576 228.921 307.647 228.746 307.717C228.439 307.841 228.133 307.966 227.827 308.097C227.479 308.244 227.132 308.394 226.786 308.547Z" fill="#FAB5AA"/>
<path d="M243.264 303.418C238.071 295.9 234.505 286.77 233.156 277.938C233.568 277.837 233.994 277.776 234.405 277.694C235.486 282.98 236.968 288.065 239.314 293.128C240.991 296.732 243.026 299.963 245.283 303.04C245.095 303.073 244.907 303.107 244.719 303.141C244.446 303.187 244.176 303.239 243.904 303.293C243.69 303.334 243.477 303.375 243.264 303.418Z" fill="#FAB5AA"/>
<path d="M261.413 301.842C260.942 301.824 260.469 301.812 259.998 301.81L259.944 301.545C259.217 297.785 258.86 293.96 258.848 290.125C258.816 285.808 259.17 281.255 260.086 276.863C260.675 276.931 261.264 276.997 261.85 277.103C260.926 281.112 260.29 285.162 260.245 289.434C260.188 293.661 260.616 297.774 261.413 301.842Z" fill="#FAB5AA"/>
<path d="M279.682 304.733C279.499 304.678 279.318 304.626 279.136 304.574C278.793 304.473 278.451 304.377 278.107 304.283C279.148 297.221 281.889 290.202 285.916 284.286C286.471 284.544 287.023 284.818 287.576 285.094C283.646 291.195 281.07 297.598 279.682 304.733Z" fill="#FAB5AA"/>
<path d="M294.668 311.479C294.281 311.228 293.892 310.981 293.498 310.736C296.163 305.593 299.8 300.948 304.24 297.251C304.629 297.647 305.018 298.043 305.388 298.437C301.041 302.198 297.43 306.517 294.668 311.479Z" fill="#FAB5AA"/>
<path d="M307.55 322.637C307.523 322.604 307.495 322.572 307.468 322.542C307.237 322.269 307.016 322.015 306.782 321.773C306.78 321.771 306.78 321.771 306.778 321.77C309.485 318.443 312.747 315.604 316.392 313.449C316.696 313.953 316.979 314.474 317.225 314.993C313.574 316.957 310.298 319.507 307.55 322.637Z" fill="#FAB5AA"/>
<path d="M314.569 332.506C314.522 332.424 314.475 332.342 314.429 332.261C314.284 332.001 314.135 331.743 313.995 331.485C316.399 329.306 319.118 327.477 322.047 326.105C322.219 326.599 322.387 327.111 322.538 327.622C319.656 328.881 316.994 330.502 314.569 332.506Z" fill="#FAB5AA"/>
<path d="M320.001 345.355C319.914 345.051 319.822 344.748 319.731 344.445C319.704 344.357 319.677 344.268 319.649 344.18C321.576 343.13 323.616 342.319 325.716 341.744C325.769 342.245 325.841 342.769 325.895 343.292C323.863 343.777 321.893 344.458 320.001 345.355Z" fill="#FAB5AA"/>
<path d="M322.278 359.021C322.269 358.82 322.258 358.618 322.246 358.417C322.237 358.233 322.224 358.048 322.21 357.864C322.199 357.71 322.188 357.557 322.178 357.403C323.485 357.09 324.825 356.855 326.178 356.717C326.149 357.289 326.102 357.86 326.056 358.431C324.784 358.539 323.544 358.741 322.278 359.021Z" fill="#FAB5AA"/>
<path d="M85.8251 424.303C85.2895 424.299 84.7521 424.294 84.2183 424.269C75.966 416.404 70.1194 406.55 67.7603 395.295C67.4934 395.303 67.2265 395.31 66.9686 395.31C66.8933 395.31 66.8181 395.31 66.7429 395.308C68.7992 406.039 73.9186 416.352 81.5404 424.183C73.5765 423.8 65.7469 422.259 58.2899 419.674C53.4768 411.956 51.3309 403.25 51.381 393.973C50.7756 393.866 50.1899 393.762 49.588 393.635C49.0972 402.43 51.6766 411.417 56.3249 418.985C51.2252 417.095 46.2975 414.727 41.6133 411.929C39.505 410.668 37.4433 409.319 35.4407 407.888C33.3968 401.473 32.7395 394.996 33.4721 388.367C32.992 388.155 32.4923 387.923 32.0158 387.672C31.1918 393.991 31.7847 400.558 33.7246 406.62C32.6893 405.849 31.6719 405.054 30.6688 404.236C29.311 403.121 27.9837 401.968 26.6886 400.775C25.6622 399.827 24.6591 398.858 23.6739 397.864C22.7532 396.929 21.8486 395.973 20.9673 394.994C19.8084 390.183 19.7099 385.286 20.4586 380.362C20.0072 380.02 19.5755 379.658 19.1456 379.298C18.3413 383.966 18.5402 388.815 19.6167 393.465C19.2997 393.112 19.0023 392.763 18.687 392.392C16.7668 390.088 14.7517 387.084 12.7634 383.489L12.6308 383.231C12.2385 379.823 12.3084 376.398 12.7992 372.967C12.3962 372.512 12.0308 372.061 11.685 371.594C11.1226 374.479 10.9757 377.458 11.1727 380.426C10.2055 378.481 9.25609 376.396 8.34793 374.191C6.03004 368.552 3.9701 362.13 2.48157 355.195C2.66069 355.345 2.81653 355.547 2.90968 355.825C5.01441 361.749 7.99505 367.015 11.685 371.594C12.0308 372.061 12.3962 372.512 12.7992 372.967C14.7409 375.255 16.8689 377.365 19.1456 379.298C19.5755 379.658 20.0072 380.02 20.4586 380.362C24.0017 383.221 27.8869 385.648 32.0158 387.672C32.4923 387.923 32.992 388.155 33.4721 388.367C38.5521 390.721 43.9885 392.469 49.588 393.635C50.1899 393.762 50.7756 393.866 51.381 393.973C56.2121 394.865 61.1702 395.31 66.1481 395.31C66.347 395.31 66.544 395.31 66.7429 395.308C66.8181 395.31 66.8933 395.31 66.9686 395.31C67.2265 395.31 67.4934 395.303 67.7603 395.295C69.8525 395.274 71.9518 395.159 74.0386 394.966C79.2351 394.489 84.0392 393.655 88.4815 392.542C88.8523 392.458 89.2052 392.352 89.5581 392.266C97.3017 390.196 104.006 387.217 110.034 383.607C110.356 383.423 110.659 383.237 110.964 383.031C117.22 379.192 122.788 374.644 128.118 369.731C128.326 369.517 128.573 369.306 128.803 369.077C134.137 364.106 139.235 358.752 144.562 353.38C144.711 353.201 144.879 353.041 145.065 352.864C146.696 351.214 148.365 349.55 150.052 347.904C151.002 348.481 151.933 349.056 152.883 349.631C153.377 349.921 153.873 350.192 154.387 350.464C158.034 352.526 161.773 354.405 165.627 356.024C170 357.878 174.485 359.528 179.141 360.504C177.725 362.456 176.31 364.411 174.886 366.358C174.2 367.296 173.509 368.233 172.816 369.168C169.12 368.176 165.518 366.981 161.941 365.231C155.6 362.125 149.923 357.941 145.065 352.864C144.879 353.041 144.711 353.201 144.562 353.38C151.679 361.075 161.163 367.929 171.417 371.049C167.406 376.471 163.27 381.789 158.865 386.894L158.846 386.893C153.343 385.732 148.173 384.465 142.954 381.488C137.404 378.312 132.648 374.108 128.803 369.077C128.573 369.306 128.326 369.517 128.118 369.731C134.895 378.759 145.743 387.007 157.108 388.917C156.153 389.991 155.184 391.057 154.201 392.111C149.676 396.965 144.849 401.393 139.737 405.307C133.82 403.575 128.312 401.321 123.053 397.173C118.082 393.257 114.009 388.458 110.964 383.031C110.659 383.237 110.356 383.423 110.034 383.607C112.809 388.82 116.468 393.549 120.975 397.502C125.448 401.414 131.214 404.991 137.311 407.082C130.506 412.008 123.198 416.031 115.408 418.922C109.932 416.73 104.879 413.822 100.39 409.391C95.4746 404.54 91.833 398.684 89.5581 392.266C89.2052 392.352 88.8523 392.458 88.4815 392.542C92.4295 404.246 100.967 414.852 112.088 420.099C103.829 422.807 95.0626 424.283 85.8251 424.303Z" fill="#FBC6BC"/>
<path d="M12.6311 383.231C12.1296 382.327 11.6495 381.404 11.173 380.426C10.976 377.458 11.1229 374.479 11.6853 371.593C12.031 372.061 12.3964 372.512 12.7995 372.967C12.3087 376.398 12.2388 379.822 12.6311 383.231Z" fill="#FAB5AA"/>
<path d="M20.9674 394.995C20.7614 394.771 20.5554 394.547 20.3512 394.319C20.2473 394.201 20.1417 394.083 20.0378 393.965C19.8963 393.8 19.7548 393.635 19.6168 393.465C18.5403 388.815 18.3415 383.966 19.1457 379.298C19.5756 379.658 20.0073 380.02 20.4587 380.362C19.71 385.286 19.8085 390.183 20.9674 394.995Z" fill="#FAB5AA"/>
<path d="M35.4408 407.888C35.2258 407.735 35.0162 407.583 34.8031 407.429C34.4448 407.162 34.0884 406.892 33.7248 406.62C31.7848 400.558 31.1919 393.991 32.0159 387.672C32.4924 387.922 32.9921 388.155 33.4722 388.367C32.7396 394.996 33.397 401.473 35.4408 407.888Z" fill="#FAB5AA"/>
<path d="M58.2898 419.674C57.9173 419.556 57.5447 419.425 57.1739 419.295C56.8891 419.193 56.6061 419.089 56.3248 418.985C51.6765 411.417 49.0971 402.43 49.5879 393.635C50.1898 393.762 50.7755 393.866 51.381 393.973C51.3308 403.25 53.4767 411.956 58.2898 419.674Z" fill="#FAB5AA"/>
<path d="M84.0967 424.269C83.2351 424.269 82.3789 424.233 81.5406 424.183C73.9188 416.351 68.7994 406.039 66.743 395.308C66.8183 395.31 66.8935 395.31 66.9687 395.31C67.2267 395.31 67.4936 395.302 67.7605 395.295C70.1195 406.55 75.9662 416.403 84.2185 424.269C84.1773 424.269 84.1361 424.269 84.0967 424.269Z" fill="#FAB5AA"/>
<path d="M112.088 420.099C100.966 414.852 92.4294 404.246 88.4814 392.542C88.8522 392.458 89.2051 392.352 89.558 392.266C91.8329 398.684 95.4745 404.54 100.39 409.391C104.879 413.822 109.932 416.729 115.408 418.922C115.069 419.054 114.729 419.183 114.388 419.309C113.625 419.583 112.86 419.846 112.088 420.099Z" fill="#FAB5AA"/>
<path d="M137.311 407.082C131.214 404.992 125.448 401.414 120.975 397.502C116.468 393.549 112.809 388.82 110.034 383.608C110.356 383.423 110.659 383.237 110.964 383.031C114.009 388.458 118.082 393.257 123.053 397.173C128.312 401.321 133.82 403.575 139.737 405.307C139.579 405.427 139.423 405.545 139.265 405.665C138.621 406.149 137.965 406.627 137.311 407.082Z" fill="#FAB5AA"/>
<path d="M157.108 388.917C145.743 387.007 134.895 378.758 128.119 369.73C128.326 369.517 128.574 369.306 128.803 369.077C132.649 374.108 137.405 378.312 142.954 381.488C148.174 384.465 153.343 385.732 158.846 386.892C158.536 387.274 158.214 387.656 157.886 388.033C157.628 388.329 157.368 388.623 157.108 388.915" fill="#FAB5AA"/>
<path d="M171.417 371.049C161.164 367.928 151.679 361.075 144.562 353.38C144.711 353.201 144.879 353.041 145.066 352.864C149.923 357.94 155.6 362.125 161.941 365.231C165.518 366.981 169.12 368.176 172.816 369.168C172.361 369.804 171.888 370.434 171.417 371.049Z" fill="#FAB5AA"/>
<path d="M248.718 631.637C246.949 629.133 244.957 626.745 242.766 624.476C240.025 621.644 237.176 619.207 234.186 617.085C234.464 616.512 234.759 615.942 235.073 615.392C234.711 615.113 234.351 614.835 233.989 614.575C233.693 615.145 233.398 615.715 233.12 616.306C230.775 614.715 228.361 613.309 225.892 612.073C226.032 611.317 226.226 610.584 226.455 609.875H226.462C226.507 609.9 226.553 609.923 226.598 609.949C227.084 610.205 227.564 610.466 228.038 610.733C229.249 611.414 230.424 612.128 231.562 612.877C232.391 613.425 233.199 613.991 233.989 614.575C234.351 614.835 234.711 615.113 235.073 615.392C240.878 619.894 245.512 625.353 248.718 631.637ZM224.771 611.5C221.395 609.863 217.937 608.546 214.364 607.448C214.384 606.529 214.457 605.614 214.57 604.704C214.217 604.559 213.844 604.433 213.472 604.308C213.357 605.238 213.3 606.173 213.298 607.111C209.592 606.022 205.791 605.153 201.899 604.453C201.834 603.149 201.863 601.87 201.965 600.596C204.573 601.361 207.174 602.157 209.757 603.013C211 603.427 212.238 603.858 213.472 604.308C213.844 604.433 214.217 604.559 214.57 604.704C218.05 605.984 221.481 607.416 224.836 609.051C225.002 609.142 225.167 609.214 225.333 609.304C225.101 610.033 224.907 610.764 224.771 611.5ZM200.292 604.186C196.641 603.563 192.94 603.108 189.177 602.703C189.027 600.793 188.991 598.891 189.107 596.983H189.089C188.566 596.824 188.04 596.686 187.517 596.528C187.486 598.538 187.608 600.562 187.846 602.556C186.745 602.447 185.659 602.357 184.556 602.248C179.988 601.836 175.372 601.306 170.79 600.604C170.756 597.515 171.135 594.517 171.875 591.549C172.472 591.769 173.066 591.991 173.663 592.192C175.418 592.815 177.183 593.404 178.956 593.971C181.792 594.873 184.645 595.715 187.517 596.528C188.04 596.686 188.566 596.824 189.089 596.983H189.107C192.856 598.038 196.589 599.052 200.335 600.127C200.186 601.476 200.17 602.835 200.292 604.186ZM169.466 600.38C165.133 599.688 160.821 598.832 156.571 597.781C156.625 597.759 156.678 597.738 156.732 597.716C156.338 596.718 155.944 595.728 155.553 594.741C154.645 595.099 153.733 595.461 152.825 595.819C152.97 596.184 153.115 596.55 153.261 596.917C151.652 596.475 150.054 596.004 148.469 595.5C149.142 590.784 150.821 586.417 153.327 582.483C158.701 585.958 164.322 588.638 170.091 590.87C169.471 593.981 169.285 597.204 169.466 600.38ZM147.46 595.167C139.525 592.582 131.943 589.181 125.005 584.685C126.63 580.541 128.955 576.706 131.923 573.247C133.551 571.354 135.289 569.735 137.166 568.3C141.195 573.09 145.933 577.394 151.168 581.036C151.419 581.21 151.67 581.382 151.923 581.554C149.537 585.706 148.025 590.39 147.46 595.167ZM138.422 580.826C138.338 580.826 138.243 580.837 138.133 580.859C137.68 581.039 137.46 581.872 138.23 581.872C138.316 581.872 138.413 581.862 138.522 581.84C138.974 581.661 139.19 580.826 138.422 580.826ZM123.988 584.006C116.499 579.003 109.805 572.703 104.32 564.759C103.958 564.248 103.618 563.722 103.297 563.2C108.538 555.365 116.316 549.811 125.276 546.88C127.454 553.986 131.122 560.719 135.893 566.742C130.564 571.27 126.42 577.444 123.988 584.006ZM102.77 562.371C96.227 551.883 93.3932 539.9 93.9664 528.212V528.194C93.9826 527.773 94.0148 527.372 94.0488 526.954C94.8979 514.466 99.6429 502.411 107.942 493.062C109.568 491.222 111.283 489.503 113.099 487.905C113.471 487.572 113.842 487.258 114.233 486.943L114.251 486.945C123.139 479.543 134.445 474.927 149.666 474.026C150.339 473.985 151.013 473.964 151.706 473.926C152.859 473.883 154.034 473.863 155.231 473.863C162.987 473.863 171.698 474.741 181.512 476.573C181.872 476.641 182.231 476.71 182.607 476.797C189.779 478.191 197.542 480.09 205.966 482.563C206.285 482.648 206.622 482.75 206.957 482.855C213.004 484.634 219.394 486.708 226.12 489.082C226.437 489.184 226.772 489.307 227.089 489.429C227.816 489.682 228.542 489.931 229.287 490.205C234 491.892 238.582 493.073 243.06 493.879C243.513 493.974 243.964 494.051 244.419 494.126C249.051 494.907 253.565 495.296 257.981 495.446C258.33 495.475 258.696 495.489 259.052 495.489C259.102 495.489 259.154 495.489 259.204 495.489C260.727 495.537 262.237 495.557 263.738 495.557C265.271 495.557 266.794 495.536 268.309 495.505C268.752 495.484 269.192 495.482 269.635 495.46C274.056 495.342 278.387 495.122 282.6 494.968C278.442 495.874 274.102 496.65 269.585 497.259C269.635 496.668 269.644 496.055 269.635 495.46C269.192 495.482 268.752 495.484 268.309 495.505C268.295 496.155 268.243 496.784 268.171 497.431C266.428 497.66 264.655 497.864 262.855 498.04C261.606 498.16 260.345 498.269 259.072 498.366C258.986 498.317 258.898 498.269 258.812 498.221C259.004 497.314 259.129 496.403 259.204 495.489C259.154 495.489 259.102 495.489 259.052 495.489C258.696 495.489 258.33 495.475 257.981 495.446C257.897 496.474 257.719 497.476 257.465 498.472C252.93 498.792 248.222 498.937 243.346 498.937C243.228 498.937 243.11 498.937 242.99 498.935C243.69 497.402 244.151 495.772 244.419 494.126C243.964 494.051 243.513 493.974 243.06 493.879C242.725 495.614 242.128 497.307 241.304 498.927C238.802 498.901 236.258 498.833 233.665 498.722C233.022 498.695 232.373 498.665 231.725 498.633C231.66 498.629 231.598 498.626 231.533 498.622C229.62 498.522 227.68 498.398 225.715 498.251C226.578 495.408 227.035 492.415 227.089 489.429C226.772 489.307 226.437 489.184 226.12 489.082C226.014 492.234 225.366 495.247 224.268 498.146C220.694 497.859 217.04 497.495 213.303 497.049C211.165 496.791 208.999 496.505 206.807 496.186C207.776 491.837 207.768 487.235 206.957 482.855C206.622 482.75 206.285 482.648 205.966 482.563C206.764 487.115 206.398 491.59 205.157 495.957C203.869 495.77 202.576 495.575 201.273 495.369C200.046 495.176 198.81 494.971 197.567 494.758C196.093 494.504 194.621 494.232 193.127 493.974C190.793 493.546 188.428 493.168 186.048 492.851C186.411 487.355 185.183 481.77 182.607 476.797C182.231 476.71 181.872 476.641 181.512 476.573C184.081 481.661 184.975 487.145 184.418 492.645C180.188 492.138 175.927 491.839 171.712 491.828C170.922 490.431 170.707 488.845 169.496 487.597C168.959 488.643 169.092 490.812 169.874 491.84C167.27 491.885 164.692 492.044 162.158 492.338C160.624 485.417 156.904 478.778 151.706 473.926C151.013 473.964 150.339 473.985 149.666 474.026C151.641 475.646 153.465 477.501 155.102 479.744C157.984 483.699 159.738 487.98 160.709 492.521C152.643 493.624 145.075 496.132 138.687 500.659C138.155 501.056 137.626 501.434 137.093 501.853C136.94 501.972 136.788 502.092 136.638 502.212C131.68 494.389 123.485 488.89 114.251 486.945L114.233 486.943C113.842 487.258 113.471 487.572 113.099 487.905C122.564 489.811 130.243 495.496 135.149 503.482C134.922 503.686 134.696 503.895 134.47 504.109C134.402 504.173 134.334 504.239 134.266 504.306C132.392 506.106 130.657 508.112 129.091 510.38C127.938 512.069 126.848 513.898 125.881 515.87C125.48 516.964 125.125 518.071 124.815 519.178C124.572 520.04 124.353 520.905 124.16 521.769C121.957 521.455 119.732 521.303 117.5 521.303C109.411 521.303 101.273 523.309 94.0488 526.954C94.0148 527.372 93.9826 527.773 93.9664 528.194C100.974 524.73 108.488 523.094 116.113 523.094C118.662 523.094 121.224 523.277 123.782 523.635C122.453 530.943 122.902 538.221 124.783 545.173C115.732 548.037 107.913 554.337 102.77 562.371ZM111.309 504.157C110.707 504.393 110.098 504.635 109.495 504.875C109.758 505.534 110.02 506.195 110.279 506.853C110.883 506.615 111.49 506.373 112.094 506.135C111.832 505.477 111.571 504.816 111.309 504.157ZM173.851 476.477C173.579 477.568 172.545 478.904 173.616 479.547C173.896 478.458 174.929 477.125 173.851 476.477Z" fill="#FBC6BC"/>
<path d="M268.171 497.431C268.243 496.784 268.295 496.156 268.309 495.505C268.752 495.484 269.192 495.482 269.635 495.461C269.644 496.055 269.635 496.668 269.585 497.259C269.101 497.315 268.635 497.392 268.171 497.431Z" fill="#FAB5AA"/>
<path d="M257.465 498.472C257.72 497.476 257.897 496.474 257.981 495.446C258.33 495.475 258.696 495.489 259.052 495.489C259.102 495.489 259.154 495.489 259.205 495.489C259.129 496.403 259.004 497.315 258.812 498.221C258.755 498.189 258.698 498.156 258.64 498.124C258.587 498.219 258.535 498.314 258.481 498.409C258.304 498.422 258.124 498.434 257.945 498.447C257.786 498.456 257.625 498.463 257.465 498.472Z" fill="#FAB5AA"/>
<path d="M242.953 498.937C242.406 498.936 241.856 498.932 241.305 498.927C242.129 497.307 242.725 495.615 243.06 493.879C243.513 493.974 243.965 494.051 244.42 494.126C244.151 495.772 243.691 497.402 242.99 498.936C242.978 498.937 242.965 498.937 242.953 498.937Z" fill="#FAB5AA"/>
<path d="M225.715 498.251C225.651 498.248 225.584 498.246 225.52 498.242C225.113 498.212 224.703 498.18 224.293 498.147C224.284 498.146 224.277 498.146 224.268 498.146C225.366 495.247 226.014 492.234 226.12 489.082C226.437 489.184 226.772 489.307 227.089 489.429C227.035 492.415 226.579 495.408 225.715 498.251Z" fill="#FAB5AA"/>
<path d="M206.807 496.186C206.257 496.121 205.707 496.039 205.157 495.957C206.398 491.59 206.764 487.115 205.967 482.563C206.285 482.648 206.622 482.75 206.957 482.855C207.769 487.235 207.776 491.837 206.807 496.186Z" fill="#FAB5AA"/>
<path d="M186.048 492.851C185.505 492.779 184.96 492.711 184.418 492.645C184.975 487.145 184.081 481.661 181.512 476.573C181.872 476.642 182.231 476.71 182.607 476.797C185.183 481.77 186.411 487.355 186.048 492.851Z" fill="#FAB5AA"/>
<path d="M160.709 492.521C159.738 487.98 157.984 483.699 155.102 479.744C153.465 477.502 151.641 475.646 149.666 474.027C150.339 473.985 151.013 473.964 151.706 473.926C156.904 478.779 160.624 485.417 162.158 492.339C161.672 492.394 161.189 492.455 160.709 492.521Z" fill="#FAB5AA"/>
<path d="M135.149 503.482C130.243 495.496 122.564 489.811 113.099 487.905C113.472 487.572 113.842 487.258 114.233 486.943L114.251 486.945C123.485 488.89 131.68 494.389 136.638 502.212C136.131 502.62 135.637 503.041 135.149 503.482Z" fill="#FAB5AA"/>
<path d="M93.9664 528.194C93.9826 527.773 94.0148 527.372 94.0488 526.954C101.273 523.309 109.411 521.303 117.5 521.303C119.732 521.303 121.957 521.455 124.16 521.769C124.022 522.39 123.895 523.014 123.782 523.635C121.224 523.277 118.662 523.094 116.113 523.094C108.488 523.094 100.974 524.73 93.9664 528.194Z" fill="#FAB5AA"/>
<path d="M103.297 563.201C103.107 562.934 102.919 562.651 102.77 562.371C107.913 554.337 115.732 548.038 124.783 545.173C124.939 545.745 125.102 546.313 125.276 546.88C116.316 549.811 108.538 555.366 103.297 563.201Z" fill="#FAB5AA"/>
<path d="M125.005 584.685C124.66 584.464 124.314 584.244 123.988 584.006C126.42 577.445 130.564 571.27 135.893 566.742C136.31 567.267 136.733 567.786 137.166 568.3C135.289 569.735 133.551 571.354 131.923 573.248C128.955 576.707 126.63 580.542 125.005 584.685Z" fill="#FAB5AA"/>
<path d="M148.469 595.501C148.132 595.395 147.795 595.293 147.46 595.167C148.025 590.39 149.537 585.706 151.922 581.554C152.388 581.869 152.856 582.181 153.327 582.484C150.821 586.417 149.142 590.784 148.469 595.501Z" fill="#FAB5AA"/>
<path d="M170.79 600.604C170.355 600.53 169.9 600.473 169.466 600.38C169.285 597.204 169.472 593.981 170.091 590.87C170.416 590.995 170.738 591.119 171.064 591.241C171.333 591.345 171.603 591.447 171.875 591.549C171.136 594.517 170.756 597.516 170.79 600.604Z" fill="#FAB5AA"/>
<path d="M189.177 602.703C188.722 602.648 188.283 602.612 187.846 602.556C187.608 600.563 187.486 598.539 187.516 596.529C188.039 596.686 188.566 596.824 189.089 596.984H189.107C188.991 598.891 189.026 600.794 189.177 602.703Z" fill="#FAB5AA"/>
<path d="M201.898 604.453C201.368 604.372 200.82 604.269 200.292 604.186C200.17 602.836 200.186 601.476 200.335 600.127C200.356 600.132 200.376 600.138 200.397 600.143C200.92 600.294 201.442 600.444 201.965 600.596C201.862 601.87 201.834 603.149 201.898 604.453Z" fill="#FAB5AA"/>
<path d="M214.364 607.448C214.011 607.322 213.656 607.217 213.298 607.111C213.3 606.173 213.357 605.237 213.472 604.308C213.845 604.433 214.217 604.559 214.57 604.704C214.457 605.614 214.384 606.529 214.364 607.448Z" fill="#FAB5AA"/>
<path d="M225.892 612.073C225.525 611.869 225.138 611.684 224.771 611.5C224.907 610.764 225.101 610.033 225.333 609.304C225.437 609.354 225.541 609.404 225.643 609.454C225.873 609.571 226.1 609.687 226.328 609.805C226.371 609.829 226.412 609.852 226.455 609.875C226.225 610.585 226.032 611.317 225.892 612.073Z" fill="#FAB5AA"/>
<path d="M234.186 617.085C233.826 616.804 233.462 616.564 233.12 616.306C233.398 615.715 233.693 615.145 233.989 614.575C234.351 614.835 234.711 615.113 235.073 615.392C234.759 615.942 234.464 616.512 234.186 617.085Z" fill="#FAB5AA"/>
<path d="M241.365 234.321C238.499 227.231 234.478 220.773 229.914 214.708C229.966 214.031 229.864 213.304 229.806 212.713C229.504 209.669 229.353 206.499 228.698 203.513C228.576 202.959 227.671 202.954 227.664 203.567C227.643 205.166 227.841 206.759 227.99 208.351C228.076 209.275 228.169 210.2 228.262 211.122C228.316 211.677 228.492 212.337 228.556 212.942C223.818 206.836 218.59 201.075 213.431 195.436C209.778 191.447 206.094 187.415 202.572 183.243C201.895 179.166 201.166 175.07 199.421 171.288C199.233 170.878 198.508 171.088 198.649 171.543C199.679 174.865 200.736 178.158 201.197 181.588C193.573 172.347 186.875 162.359 183.264 150.54C181.785 145.697 180.764 140.842 180.108 135.984C180.645 135.241 180.937 134.172 181.208 133.521C182.356 130.761 183.746 127.97 184.386 125.04C184.466 124.671 183.895 124.502 183.707 124.794C182.799 126.209 182.148 127.788 181.498 129.335C181.095 130.301 180.705 131.27 180.305 132.237C180.196 132.506 180.029 133.122 179.838 133.677C178.267 119.585 179.662 105.476 181.924 91.5379C182.562 91.0346 183.053 90.1981 183.445 89.6285C185.165 87.1458 186.883 84.6631 188.618 82.1912C188.917 81.7631 188.269 81.3152 187.957 81.7272C186.915 83.1047 185.871 84.4822 184.821 85.8525C184.296 86.5385 183.769 87.2228 183.243 87.907C182.935 88.3101 182.644 88.8618 182.299 89.2738C183.171 84.0971 184.142 78.9454 185.111 73.8296C186.214 68.0116 187.327 62.1237 188.291 56.2018C189.009 55.7271 189.512 54.7993 189.978 54.1616C191.185 52.5118 192.699 50.9624 193.634 49.1443C193.77 48.8792 193.385 48.6643 193.184 48.8308C192.278 49.5778 191.583 50.5307 190.823 51.4263C190.222 52.1375 189.414 53.4791 188.602 54.1974C190.102 44.6339 190.891 35.984 190.823 26.4025C190.703 25.5302 190.669 25.0161 190.458 25.0161C190.032 25.077 190.064 26.6372 190.021 26.6909C189.845 36.1846 188.242 44.6268 186.75 53.798C186.462 53.0886 186.336 52.1393 186.207 51.6664C185.862 50.3767 185.514 49.0869 185.167 47.799C185.025 47.267 184.219 47.4032 184.316 47.9603C184.697 50.1295 184.948 52.3757 185.494 54.5109C185.656 55.1378 185.908 55.763 186.372 56.1463C185.33 62.2813 184.14 68.3429 182.962 74.3257C182.01 79.1514 181.068 83.9287 180.216 88.6719C180.165 88.3334 180.142 87.9662 180.076 87.6061C179.924 86.7804 179.773 85.9546 179.617 85.1306C179.281 83.3447 178.89 81.5678 178.517 79.7891C178.387 79.1675 177.462 79.3448 177.548 79.9736C177.935 82.7464 178.346 85.5121 178.799 88.2743C178.946 89.1681 178.99 90.6925 179.728 91.4717C177.301 105.56 175.805 119.385 177.305 133.373C176.769 132.293 176.411 130.929 176.183 130.408C175.359 128.513 174.571 126.573 173.497 124.805C173.35 124.563 172.913 124.653 172.99 124.972C173.652 127.725 174.831 130.39 175.902 133.004C176.269 133.903 176.706 135.658 177.67 136.427C178.369 141.462 179.476 146.522 181.084 151.627C184.678 163.045 191.072 173.004 198.449 182.29C195.791 181.025 193.249 179.601 190.811 177.816C190.3 177.443 189.817 178.201 190.263 178.598C193.249 181.262 196.736 183.501 200.525 184.857C204.648 189.865 209.012 194.698 213.331 199.474C217.728 204.34 222.179 209.293 226.392 214.427C225.126 213.884 223.655 212.607 222.824 212.057C221.139 210.939 219.458 209.818 217.775 208.699C217.295 208.378 216.793 209.094 217.261 209.431C219.783 211.251 222.305 213.069 224.816 214.902C225.701 215.547 226.987 216.795 228.239 216.693C232.798 222.421 237 228.401 240.405 234.799C240.642 235.202 240.975 235.114 241.095 235.048C241.215 234.982 241.559 234.779 241.365 234.321Z" fill="#F8A597"/>
<path d="M261.416 327.591C258.575 328.775 255.858 330.244 253.085 331.58C260.103 324.98 264.229 316.444 265.026 306.696L264.187 306.628L264.89 306.723C263.573 316.686 258.724 325.404 251.434 331.802C252.351 328.788 253.259 325.73 253.832 322.656C253.915 322.217 253.254 322.119 253.096 322.495C251.622 325.992 250.579 329.748 249.494 333.384C244.018 337.647 237.369 340.707 229.899 342.129C224.119 343.232 218.159 343.428 212.042 342.738C214.661 341.486 217.321 340.375 220.063 339.335C220.406 339.204 220.216 338.656 219.863 338.729C216.307 339.464 212.846 340.76 209.604 342.41C199.724 340.925 189.449 337.16 178.865 331.089C177.039 330.042 175.248 328.927 173.469 327.786C175.986 328.121 178.51 328.444 181.007 328.412C181.521 328.404 181.813 327.582 181.22 327.442C177.899 326.663 174.401 326.495 170.976 326.158C163.909 321.417 157.176 316.084 150.609 310.872C146.909 307.932 143.174 304.968 139.36 302.096C142.642 302.56 145.794 303.438 148.933 304.672C149.484 304.889 149.737 304.086 149.241 303.83C145.579 301.951 141.606 300.987 137.533 300.737C126.925 292.896 115.649 285.907 102.697 282.296C100.501 281.69 98.3154 281.224 96.1444 280.866C97.701 280.478 99.7663 280.198 100.305 280.112C102.355 279.784 104.404 279.706 106.476 279.661C107.379 279.643 107.533 278.299 106.593 278.233C103.793 278.038 100.958 278.319 98.2294 278.966C97.1529 279.222 94.6863 279.596 93.3608 280.47C92.6479 280.386 91.9349 280.302 91.2274 280.245C75.6166 278.968 61.2257 284.123 51.4364 294.399C52.7136 291.419 53.9388 288.42 55.1426 285.407C55.2823 285.06 54.7718 284.898 54.6106 285.214C52.5076 289.276 50.3904 293.326 48.4988 297.494L48.4719 297.822C46.9906 299.741 45.6417 301.792 44.4613 303.988C39.3132 313.537 38.2206 324.55 40.5385 334.783C39.1359 332.709 37.8516 330.563 36.7517 328.295C36.5278 327.833 35.8543 328.168 36.0388 328.637C37.4467 332.243 39.2738 335.6 41.5989 338.679C44.8446 348.875 51.5493 357.96 61.0591 363.552C63.5328 365.005 65.9976 366.166 68.4462 367.085C67.762 367.131 67.0777 367.194 66.3934 367.248C64.7795 367.375 63.1334 367.443 61.5481 367.792C61.1307 367.882 61.1576 368.498 61.5893 368.546C63.8785 368.79 66.2591 368.588 68.5591 368.496C69.3365 368.468 70.5742 368.575 71.2907 368.047C86.3946 372.528 100.807 367.565 113.186 359.183C113.353 359.997 108.572 366.051 107.968 366.924C107.546 367.536 108.468 368.176 108.909 367.583C110.383 365.607 111.85 363.626 113.306 361.636C113.914 360.805 115.494 359.307 114.732 358.114C121.254 353.489 127.181 347.961 132.306 342.446C126.653 347.911 120.763 353.324 114.431 357.785C113.604 357.15 112.18 357.7 111.327 357.897C108.907 358.456 106.501 359.063 104.096 359.674C103.514 359.823 103.669 360.706 104.271 360.6C105.735 360.341 107.202 360.097 108.665 359.827C109.23 359.723 111.558 359.046 112.636 359.015C104.148 364.663 94.8421 368.475 84.1985 368.263C79.8081 368.176 75.5718 367.429 71.5648 366.144C71.1725 365.415 70.4327 364.735 70.0476 364.253C68.62 362.458 67.2622 360.536 65.6411 358.913C65.2363 358.508 64.389 358.935 64.733 359.501C65.4817 360.731 66.3863 361.844 67.264 362.983C67.6885 363.533 68.1113 364.079 68.5358 364.627C68.6665 364.796 68.8851 365.027 69.1126 365.268C57.2742 360.692 47.8307 351.196 43.5657 339.105C44.3198 335.306 45.1599 331.525 45.8979 327.724C46.0179 327.109 44.9629 326.871 44.8142 327.485C44.0923 330.466 43.4242 333.463 42.7363 336.452C42.3261 334.998 41.9661 333.52 41.7081 332.003C39.6088 319.688 43.1716 307.293 50.6787 297.887C54.5532 296.146 58.5459 294.766 62.4419 293.077C62.999 292.837 62.7052 291.933 62.1088 292.065C58.9848 292.764 55.9397 293.939 52.9698 295.236C57.0126 290.929 61.9583 287.408 67.6169 285.042C75.9086 281.568 84.4278 281.02 92.4705 282.084C92.6138 283.109 93.8337 283.929 94.5556 284.513C96.877 286.389 99.3651 288.882 102.111 290.08C102.401 290.208 102.584 289.835 102.432 289.618C101.47 288.237 100.073 287.232 98.799 286.138C98.1667 285.593 95.3007 283.671 94.5215 282.392C106.938 284.47 118.05 290.209 125.172 294.661C128.794 296.919 132.326 299.391 135.815 301.933C136.435 305.657 138.124 309.345 140.967 311.869C141.375 312.235 141.857 311.593 141.576 311.203C139.663 308.55 138.23 306.033 137.341 303.033C141.671 306.238 145.914 309.56 150.084 312.84C155.935 317.438 161.857 322.079 168.006 326.362L168.01 326.837C169.654 330.683 172.047 334.16 175.264 336.848C175.581 337.113 176.002 336.626 175.744 336.324C173.428 333.626 171.458 330.806 169.88 327.661C181.319 335.415 193.612 341.769 207.808 344.06C208.006 344.092 208.207 344.11 208.408 344.141L208.415 344.15C211.505 346.503 215.392 348.889 219.302 349.455C219.909 349.545 220.02 348.687 219.521 348.459C216.665 347.161 213.955 346.095 211.369 344.501C225.324 345.835 239.751 342.07 249.879 334.31C250.047 334.398 250.235 334.434 250.438 334.312C254.085 332.094 258.049 330.411 261.714 328.211C262.088 327.985 261.83 327.417 261.416 327.591Z" fill="#F8A597"/>
<path d="M363.316 380.299C362.004 381.83 360.826 383.468 359.502 384.988C358.599 386.029 356.613 388.592 354.9 389.411C356.81 381.836 358.037 374.108 358.66 366.506C359.276 358.945 359.309 351.528 358.868 344.513C358.741 342.527 358.535 340.569 358.306 338.624C358.682 337.966 358.866 337.126 359.033 336.474C359.894 333.092 360.752 329.701 361.517 326.296C361.721 325.402 360.396 324.87 360.145 325.793C359.864 326.826 358.918 332.173 357.852 335.389C355.629 320.505 350.431 306.902 342.641 295.204C342.673 294.532 342.474 293.797 342.342 293.185C341.656 289.991 341.183 286.623 340.185 283.517C339.992 282.91 339.145 283.053 339.202 283.704C339.379 285.67 339.884 287.612 340.268 289.549C340.463 290.519 340.631 291.492 340.807 292.468L340.821 292.529C332.981 281.599 322.828 272.446 310.715 265.641C308.51 262.682 306.171 259.884 303.545 257.247C303.151 256.853 302.486 257.419 302.884 257.806C305.007 259.871 306.952 262.128 308.677 264.541C305.146 262.665 301.465 260.971 297.627 259.497C287.463 255.59 276.726 253.423 265.796 252.901C264.881 251.862 262.681 251.221 261.796 250.89C259.222 249.93 256.525 249.381 253.782 249.315C253.404 249.306 253.365 249.835 253.736 249.896C255.613 250.209 257.494 250.573 259.308 251.158C260.066 251.402 262.638 252.113 263.872 252.848C250.567 252.446 237.007 254.447 223.858 258.741L223.712 258.655C220.209 257.865 216.562 258.159 213.158 259.242C212.75 259.371 212.836 259.986 213.287 259.916C215.965 259.5 218.557 259.468 221.196 259.638C211.534 263.034 202.121 267.656 193.229 273.458C192.17 272.834 190.159 273.766 189.199 274.081C187.221 274.731 185.365 275.656 183.59 276.737C183.205 276.972 183.484 277.603 183.9 277.382C185.132 276.734 186.388 276.159 187.699 275.69C188.077 275.555 190.752 274.45 191.825 274.402C186.295 278.11 180.97 282.26 175.925 286.867C181.313 282.575 186.813 278.715 192.387 275.263C192.195 276.245 191.176 277.728 190.904 278.278C190.123 279.852 189.32 281.414 188.59 283.016C188.348 283.548 189.229 284.019 189.51 283.496C190.596 281.459 191.57 279.367 192.605 277.304C192.971 276.573 193.91 275.344 193.824 274.369C202.846 268.913 212.068 264.604 221.339 261.39C219.618 263.552 217.513 265.331 215.772 267.534C215.53 267.84 215.926 268.308 216.268 268.118C219.148 266.524 221.196 263.489 223.121 260.779C236.728 256.281 250.429 254.232 263.794 254.718C262.919 255.233 261.578 255.567 261.048 255.78C259.319 256.469 257.517 257.075 255.898 257.992C255.445 258.25 255.631 259.086 256.202 258.922C258.921 258.135 261.477 256.735 264.078 255.626C264.569 255.416 265.253 255.194 265.717 254.814C274.996 255.323 284.103 257.046 292.884 260.066C298.046 261.84 302.945 263.991 307.568 266.483C304.271 266.063 300.924 265.863 297.629 265.739C297.304 265.727 297.286 266.166 297.589 266.23C301.899 267.145 306.327 267.96 310.735 268.263C322.246 275.047 331.863 284.069 339.315 294.779C338.118 294.356 336.47 293.147 335.573 292.696C333.894 291.854 332.214 290.982 330.466 290.301C330.016 290.125 329.676 290.779 330.077 291.048C332.537 292.715 335.243 294.05 337.857 295.454C338.614 295.863 339.685 296.688 340.696 296.851C348.409 308.606 353.561 322.293 355.739 337.298C354.879 336.195 353.666 333.716 353.27 333.117C352.154 331.428 350.994 329.766 349.856 328.091C349.519 327.597 348.67 328.145 348.975 328.662C350.603 331.433 352.235 334.197 353.926 336.929C354.435 337.753 355.049 339.102 356.052 339.525C356.722 344.916 357.014 350.469 356.898 356.162C356.67 367.821 355.205 378.706 352.627 388.693C352.529 388.166 352.617 387.484 352.552 386.749C352.452 385.603 352.359 384.456 352.246 383.314C351.997 380.84 351.621 378.389 351.286 375.926C351.201 375.314 350.146 375.348 350.177 375.986C350.36 379.688 350.567 383.364 350.929 387.057C351.042 388.209 350.901 390.482 351.834 391.621C346.811 409.215 338.181 423.803 326.531 434.538C326.767 433.53 327.181 432.462 327.371 431.688C327.944 429.36 328.506 427.029 329.074 424.699C329.223 424.086 328.322 423.728 328.135 424.355C327.104 427.785 326.05 431.208 325.069 434.653C324.938 435.113 324.721 435.685 324.546 436.276C316.179 443.469 306.374 448.782 295.271 451.851C288.565 453.705 281.835 454.797 275.102 455.363C277.495 453.753 279.852 452.08 282.175 450.382C282.736 449.973 282.109 448.981 281.507 449.352C278.247 451.36 274.971 453.388 271.858 455.621C257.795 456.433 243.721 454.898 229.774 452.481C230.288 452.293 230.8 452.107 231.313 451.92C233.014 451.297 234.809 450.778 236.366 449.839C236.755 449.606 236.592 448.995 236.112 449.067C233.588 449.434 231.141 450.575 228.742 451.415C228.268 451.582 227.635 451.75 227.075 452.003C219.078 450.556 211.125 448.852 203.246 447.159C200.315 446.527 197.347 445.893 194.37 445.268C194.554 445.223 194.742 445.184 194.927 445.139C196.453 444.782 197.943 444.401 199.436 443.926C200.095 443.715 199.944 442.774 199.233 442.855C196.81 443.124 194.406 443.571 192.023 444.1C191.586 444.198 191.113 444.317 190.714 444.51C184.993 443.333 179.245 442.215 173.586 441.302C169.063 440.578 164.169 439.958 159.048 439.523C159.79 439.332 160.529 439.138 161.267 438.936C162.813 438.513 164.331 438.065 165.85 437.558C166.442 437.361 166.106 436.417 165.513 436.532C162.76 437.066 160.046 437.771 157.345 438.518C156.773 438.676 155.973 438.855 155.448 439.258C145.173 438.592 134.078 438.787 123.071 440.585C125.036 439.314 126.999 438.002 128.694 436.439C129.066 436.095 128.683 435.453 128.201 435.681C125.141 437.132 122.367 439.303 119.583 441.218C112.248 442.653 105.001 444.856 98.1007 448.026C99.6053 446.71 101.097 445.382 102.556 444.01C102.996 443.595 102.427 442.921 101.947 443.294C99.7504 444.997 97.6242 446.767 95.5033 448.56C95.2651 448.762 95.249 449.087 95.3672 449.346C93.404 450.341 91.4641 451.396 89.5725 452.564C88.324 453.746 87.0952 454.949 85.9022 456.175C89.3217 453.679 92.9042 451.568 96.6032 449.744C99.6823 449.868 102.837 450.092 105.894 449.843C106.425 449.8 106.317 449.028 105.848 448.956C103.697 448.632 101.475 448.551 99.2668 448.496C105.764 445.604 112.626 443.605 119.782 442.366L119.954 442.447C123.922 443.013 127.914 443.801 131.907 444.141C132.677 444.206 132.71 443.133 132.002 442.979C129.462 442.427 126.865 442.054 124.274 441.689C134.205 440.404 144.625 440.408 155.317 441.279C156.091 442.189 157.787 442.719 158.584 443.136C160.915 444.361 163.254 445.855 165.729 446.762C166.364 446.991 166.835 446.099 166.276 445.71C165.104 444.89 163.782 444.29 162.514 443.632C161.782 443.254 161.047 442.875 160.315 442.495C159.795 442.224 158.855 441.918 158.221 441.533C168.642 442.524 179.291 444.275 189.958 446.368C190.458 447.779 192.6 448.918 193.721 449.669C195.257 450.699 197.062 451.924 198.907 452.254C199.471 452.354 199.62 451.591 199.253 451.29C197.193 449.599 194.524 448.736 192.537 446.876C196.623 447.698 200.709 448.564 204.782 449.452C211.854 450.998 218.88 452.46 225.831 453.726L225.833 453.855C226.138 455.469 228.631 456.54 229.851 457.239C232.008 458.476 234.283 459.449 236.688 460.083C237.448 460.282 237.869 459.213 237.113 458.919C235.692 458.367 234.277 457.807 232.907 457.142C231.583 456.501 229.109 455.546 228.139 454.383L227.933 454.1C243.201 456.794 258.108 458.46 272.365 457.774C276.923 459.668 281.719 460.966 286.671 461.156C287.574 461.188 287.687 459.863 286.788 459.755C283.15 459.322 279.65 458.634 276.236 457.524C291.443 456.318 305.872 452.263 319.154 443.72C321.223 442.391 323.184 440.956 325.069 439.45C326.453 440.351 328.986 438.932 330.231 438.511C333.654 437.358 337.688 436.478 340.735 434.52C341.12 434.273 340.959 433.716 340.486 433.759C338.46 433.94 336.529 434.724 334.604 435.364C332.791 435.968 330.317 437.413 328.444 437.51C328.055 437.528 327.745 437.492 327.48 437.422C340.945 425.637 349.432 409.36 354.191 392.06C355.886 391.344 357.706 389.132 358.598 388.243C360.81 386.031 362.877 383.616 364.236 380.779C364.509 380.206 363.672 379.887 363.316 380.299Z" fill="#F8A597"/>
<path d="M169.332 39.9498C169.171 36.3386 166.265 33.2129 162.446 34.2393C161.631 34.4596 160.92 34.8752 160.263 35.3732C159.845 35.5398 159.426 35.7601 159 36.061C157.404 37.1913 156.102 38.6261 155.204 40.3672C153.533 43.6058 152.822 48.3902 155.061 51.5643C157.622 55.1952 161.959 53.6404 164.59 51.018C167.42 48.1986 169.514 44.0213 169.332 39.9498Z" fill="#F8A597"/>
<path d="M165.806 38.6386L165.803 38.4917C165.806 38.2875 165.801 38.0851 165.76 37.8809L165.755 37.7931L165.642 37.494L165.557 37.2217L165.509 37.1446L165.231 36.7058L165.126 36.5715C163.987 35.2388 161.722 35.1008 160.563 36.6932C159.2 38.5669 160.477 41.2001 162.758 41.3739C164.415 41.4993 165.692 40.1486 165.806 38.6386Z" fill="#FDE8E3"/>
<path d="M222.33 43.4158C220.832 39.9013 217.321 36.2848 213.261 36.643C213.044 36.661 212.868 36.738 212.666 36.7774C210.862 36.1092 208.942 38.2229 208.39 40.5014C208.338 40.7146 208.313 40.9313 208.274 41.1463C207.844 42.7083 207.819 44.4529 208.161 46.04L208.259 46.4305C208.653 48.5854 209.502 50.6543 210.742 52.4688C213.103 55.9259 217.868 58.5286 221.303 54.8726C224.069 51.9314 223.813 46.8998 222.33 43.4158Z" fill="#F8A597"/>
<path d="M214.894 38.5831C213.567 37.623 211.252 38.035 210.722 39.6238C210.35 40.3672 210.283 41.2717 210.627 42.0778C211.351 43.7651 213.522 44.2774 214.946 43.1077C216.381 41.9327 216.442 39.7008 214.894 38.5831Z" fill="#FDE8E3"/>
<path d="M156.571 597.781C155.462 597.507 154.359 597.218 153.261 596.917C153.115 596.55 152.97 596.185 152.825 595.819C153.733 595.461 154.645 595.099 155.553 594.741C155.944 595.728 156.338 596.718 156.732 597.716C156.678 597.738 156.625 597.759 156.571 597.781Z" fill="#FBC7BF"/>
<path d="M110.279 506.853C110.02 506.196 109.758 505.535 109.495 504.876C110.098 504.636 110.707 504.394 111.309 504.157C111.571 504.816 111.832 505.477 112.094 506.135C111.49 506.373 110.883 506.615 110.279 506.853Z" fill="#FBC7BF"/>
<path d="M138.23 581.873C137.46 581.873 137.68 581.04 138.133 580.859C138.243 580.837 138.338 580.827 138.422 580.827C139.19 580.827 138.973 581.661 138.522 581.84C138.413 581.862 138.316 581.873 138.23 581.873Z" fill="#FBC7BF"/>
<path d="M220.259 308.391C219.849 308.391 219.558 307.599 219.641 307.23C219.678 307.174 219.716 307.117 219.752 307.058C219.823 307.011 219.893 306.992 219.96 306.992C220.449 306.992 220.76 308.104 220.484 308.312C220.407 308.367 220.33 308.391 220.259 308.391Z" fill="#FBC7BF"/>
<path d="M218.67 308.165C218.383 308.117 218.097 308.065 217.812 308.011C216.504 307.753 215.195 307.524 213.893 307.266C214.16 305.955 214.423 304.649 214.686 303.359C214.74 303.357 214.794 303.357 214.846 303.357C217.875 303.357 218.364 305.226 220.185 306.098C220.065 306.46 219.92 306.779 219.752 307.058C219.716 307.117 219.679 307.175 219.641 307.23C219.37 307.628 219.046 307.936 218.67 308.165Z" fill="#FBC7BF"/>
<path d="M169.875 491.84C169.092 490.812 168.959 488.643 169.497 487.597C170.707 488.845 170.922 490.431 171.712 491.828C171.621 491.826 171.53 491.826 171.44 491.826C170.917 491.826 170.394 491.831 169.875 491.84Z" fill="#FBC7BF"/>
<path d="M248.735 290.586C248.296 290.586 247.699 289.828 247.86 289.554C247.941 289.418 248.049 289.362 248.169 289.362C248.607 289.362 249.193 290.12 249.039 290.396C248.962 290.53 248.855 290.586 248.735 290.586Z" fill="#FBC7BF"/>
</svg>
