<svg width="116" height="122" viewBox="0 0 116 122" fill="none" xmlns="http://www.w3.org/2000/svg">
<g filter="url(#filter0_bd_200_2093)">
<path d="M53 90.1132C56.094 91.8996 59.906 91.8996 63 90.1132L80.7128 79.8868C83.8068 78.1004 85.7128 74.7992 85.7128 71.2265V50.7735C85.7128 47.2008 83.8068 43.8996 80.7128 42.1133L63 31.8867C59.906 30.1004 56.094 30.1004 53 31.8867L35.2872 42.1133C32.1932 43.8996 30.2872 47.2008 30.2872 50.7735V71.2265C30.2872 74.7992 32.1932 78.1004 35.2872 79.8868L53 90.1132Z" fill="url(#paint0_radial_200_2093)"/>
<path d="M53.25 89.6802C56.1893 91.3772 59.8107 91.3772 62.75 89.6802L80.4628 79.4537C83.4021 77.7567 85.2128 74.6205 85.2128 71.2265V50.7735C85.2128 47.3795 83.4021 44.2433 80.4628 42.5463L62.75 32.3198C59.8107 30.6227 56.1893 30.6227 53.25 32.3198L35.5372 42.5463C32.5979 44.2433 30.7872 47.3795 30.7872 50.7735V71.2265C30.7872 74.6205 32.5979 77.7567 35.5372 79.4537L53.25 89.6802Z" stroke="url(#paint1_linear_200_2093)" style="mix-blend-mode:overlay"/>
</g>
<path d="M53.8242 56.0195C53.625 56.0195 53.4609 55.8906 53.4258 55.6797C53.0273 53.5469 53.0859 53.6172 50.9531 53.1953C50.7422 53.1602 50.6016 52.9961 50.6016 52.7969C50.6016 52.5977 50.7422 52.4453 50.9531 52.4102C53.0859 51.9883 53.0273 52.0586 53.4258 49.9258C53.4609 49.7148 53.625 49.5859 53.8242 49.5859C54.0234 49.5859 54.1875 49.7148 54.2227 49.9258C54.6211 52.0586 54.5625 51.9883 56.6953 52.4102C56.9062 52.4453 57.0469 52.5977 57.0469 52.7969C57.0469 52.9961 56.9062 53.1602 56.6953 53.1953C54.5625 53.6172 54.6211 53.5469 54.2227 55.6797C54.1875 55.8906 54.0234 56.0195 53.8242 56.0195ZM60.1406 65.5469C57.6211 65.5469 55.582 63.5195 55.582 60.9883C55.582 58.7617 57.1875 56.8984 59.3086 56.5117C59.3086 56.4883 59.3086 56.4648 59.3086 56.4297C59.3086 53.3711 61.793 50.8867 64.8398 50.8867C67.9102 50.8867 70.3945 53.3711 70.3945 56.4297C70.3945 59.4883 67.9102 61.9609 64.8398 61.9609C64.7578 61.9609 64.6758 61.9609 64.5937 61.9609C64.1484 64.0117 62.332 65.5469 60.1406 65.5469ZM61.0781 56.4297C61.0781 56.4648 61.0781 56.5 61.0781 56.5352C62.8828 56.9102 64.3008 58.3516 64.6289 60.1914C64.6992 60.1914 64.7695 60.1914 64.8398 60.1914C66.9258 60.1914 68.625 58.5156 68.625 56.4297C68.625 54.332 66.9492 52.6563 64.8398 52.6563C62.7539 52.6563 61.0781 54.3438 61.0781 56.4297ZM49.2305 62.5117C47.5195 62.5117 46.125 61.1172 46.125 59.4063C46.125 57.7188 47.5195 56.3242 49.2305 56.3242C50.918 56.3242 52.3242 57.7188 52.3242 59.4063C52.3242 61.1172 50.918 62.5117 49.2305 62.5117ZM49.2305 60.7422C49.957 60.7422 50.5547 60.1445 50.5547 59.4063C50.5547 58.6914 49.957 58.0938 49.2305 58.0938C48.4922 58.0938 47.8945 58.6914 47.8945 59.4063C47.8945 60.1445 48.4922 60.7422 49.2305 60.7422ZM60.1406 63.7773C61.6875 63.7773 62.9297 62.5469 62.9297 60.9883C62.9297 59.4414 61.6875 58.1992 60.1406 58.1992C58.5937 58.1992 57.3516 59.4414 57.3516 60.9883C57.3516 62.5469 58.5937 63.7773 60.1406 63.7773ZM66.5508 73.4922C66.2812 73.4922 66.082 73.293 66.0586 73.0234C65.707 70.2109 65.6484 70.1641 62.7187 69.6836C62.4258 69.6367 62.2383 69.4492 62.2383 69.1914C62.2383 68.957 62.4141 68.7578 62.6719 68.6992C65.6484 68.1367 65.707 68.1719 66.0586 65.3594C66.082 65.0898 66.2812 64.8906 66.5508 64.8906C66.8086 64.8906 67.0195 65.0781 67.043 65.3477C67.4062 68.2305 67.4648 68.2773 70.4062 68.6992C70.6758 68.7461 70.8633 68.9336 70.8633 69.1914C70.8633 69.4375 70.6758 69.6367 70.418 69.6836C67.4297 70.2578 67.418 70.2344 67.043 73.0469C67.0078 73.3047 66.7969 73.4922 66.5508 73.4922ZM53.8008 73.1172C51.9609 73.1172 50.4609 71.6172 50.4609 69.7773C50.4609 67.9609 51.9609 66.4609 53.8008 66.4609C55.6172 66.4609 57.1172 67.9609 57.1172 69.7773C57.1172 71.6172 55.6172 73.1172 53.8008 73.1172ZM53.8008 71.3359C54.6445 71.3359 55.3477 70.6211 55.3477 69.7773C55.3477 68.9336 54.6445 68.2305 53.8008 68.2305C52.9453 68.2305 52.2305 68.9336 52.2305 69.7773C52.2305 70.6445 52.9336 71.3359 53.8008 71.3359Z" fill="url(#paint2_linear_200_2093)" style="mix-blend-mode:overlay"/>
<defs>
<filter id="filter0_bd_200_2093" x="0.287231" y="0.546997" width="115.426" height="120.906" filterUnits="userSpaceOnUse" color-interpolation-filters="sRGB">
<feFlood flood-opacity="0" result="BackgroundImageFix"/>
<feGaussianBlur in="BackgroundImageFix" stdDeviation="2"/>
<feComposite in2="SourceAlpha" operator="in" result="effect1_backgroundBlur_200_2093"/>
<feColorMatrix in="SourceAlpha" type="matrix" values="0 0 0 0 0 0 0 0 0 0 0 0 0 0 0 0 0 0 127 0" result="hardAlpha"/>
<feOffset/>
<feGaussianBlur stdDeviation="15"/>
<feComposite in2="hardAlpha" operator="out"/>
<feColorMatrix type="matrix" values="0 0 0 0 0.462745 0 0 0 0 0.239216 0 0 0 0 0.690196 0 0 0 1 0"/>
<feBlend mode="normal" in2="effect1_backgroundBlur_200_2093" result="effect2_dropShadow_200_2093"/>
<feBlend mode="normal" in="SourceGraphic" in2="effect2_dropShadow_200_2093" result="shape"/>
</filter>
<radialGradient id="paint0_radial_200_2093" cx="0" cy="0" r="1" gradientUnits="userSpaceOnUse" gradientTransform="translate(75.0777 50.3333) rotate(92.637) scale(162.172 72.7296)">
<stop stop-color="#602EA6"/>
<stop offset="1" stop-color="#C977D6"/>
</radialGradient>
<linearGradient id="paint1_linear_200_2093" x1="50.2" y1="48.6086" x2="78.7955" y2="89.1105" gradientUnits="userSpaceOnUse">
<stop stop-color="white"/>
<stop offset="1" stop-color="white" stop-opacity="0.5"/>
</linearGradient>
<linearGradient id="paint2_linear_200_2093" x1="58.5" y1="47" x2="58.5" y2="76" gradientUnits="userSpaceOnUse">
<stop stop-color="white" stop-opacity="0.8"/>
<stop offset="1" stop-color="white" stop-opacity="0.3"/>
</linearGradient>
</defs>
</svg>
